<svg width="22" height="22" viewBox="0 0 22 22" fill="none" xmlns="http://www.w3.org/2000/svg">
<path d="M13.5 15.0001L19.5 21.0001M18.5 6.10352e-05V6.00006M15.5 3.00006H21.5M8.5 17.0001C9.41925 17.0001 10.3295 16.819 11.1788 16.4672C12.0281 16.1154 12.7997 15.5998 13.4497 14.9498C14.0998 14.2998 14.6154 13.5281 14.9672 12.6788C15.3189 11.8296 15.5 10.9193 15.5 10.0001C15.5 9.08081 15.3189 8.17056 14.9672 7.32128C14.6154 6.472 14.0998 5.70032 13.4497 5.05031C12.7997 4.4003 12.0281 3.88469 11.1788 3.5329C10.3295 3.18112 9.41925 3.00006 8.5 3.00006C6.64348 3.00006 4.86301 3.73756 3.55025 5.05031C2.2375 6.36307 1.5 8.14355 1.5 10.0001C1.5 11.8566 2.2375 13.6371 3.55025 14.9498C4.86301 16.2626 6.64348 17.0001 8.5 17.0001Z" stroke="#5C5C5C" stroke-width="2"/>
</svg>
