<svg xmlns="http://www.w3.org/2000/svg" fill="none" viewBox="14.1888 15.5328 19.104 16.032" style="max-height: 500px" width="19.104" height="16.032">
<path fill="#929292" d="M23.437 25.8332C24.0172 25.8332 24.5736 25.6028 24.9838 25.1925C25.394 24.7823 25.6245 24.2259 25.6245 23.6457C25.6245 23.5817 25.6216 23.5182 25.6161 23.4555L23.2468 25.8248C23.3095 25.8303 23.3727 25.8332 23.437 25.8332ZM30.6776 16.8793L29.8433 16.0457C29.814 16.0164 29.7742 16 29.7328 16C29.6914 16 29.6517 16.0164 29.6224 16.0457L27.4872 18.1815C26.3093 17.5795 24.9853 17.2785 23.5151 17.2785C19.7612 17.2785 16.9604 19.2336 15.1128 23.1438C15.0385 23.301 15 23.4728 15 23.6467C15 23.8206 15.0385 23.9924 15.1128 24.1496C15.8511 25.7047 16.7401 26.9511 17.7798 27.8889L15.7136 29.9543C15.6843 29.9836 15.6678 30.0233 15.6678 30.0648C15.6678 30.1062 15.6843 30.1459 15.7136 30.1752L16.5474 31.009C16.5767 31.0383 16.6164 31.0547 16.6578 31.0547C16.6992 31.0547 16.739 31.0383 16.7683 31.009L30.6776 17.1004C30.6922 17.0859 30.7037 17.0687 30.7115 17.0497C30.7194 17.0307 30.7235 17.0104 30.7235 16.9899C30.7235 16.9693 30.7194 16.949 30.7115 16.93C30.7037 16.9111 30.6922 16.8938 30.6776 16.8793ZM19.9995 23.6457C19.9994 23.052 20.1532 22.4684 20.4457 21.9517C20.7383 21.435 21.1597 21.0029 21.6688 20.6975C22.178 20.3921 22.7576 20.2238 23.3511 20.209C23.9447 20.1942 24.532 20.3333 25.0558 20.6129L24.1061 21.5625C23.7232 21.4399 23.3138 21.4251 22.923 21.5198C22.5322 21.6145 22.175 21.8151 21.8907 22.0994C21.6064 22.3838 21.4058 22.7409 21.3111 23.1317C21.2164 23.5226 21.2312 23.9319 21.3538 24.3149L20.4042 25.2645C20.1377 24.7666 19.9987 24.2104 19.9995 23.6457Z"/>
<path fill="#929292" d="M31.9172 23.1418C31.2297 21.6939 30.4114 20.5132 29.4623 19.5998L26.6471 22.4153C26.8844 23.0356 26.937 23.7114 26.7985 24.361C26.6601 25.0106 26.3365 25.6062 25.8668 26.0758C25.3972 26.5455 24.8016 26.8691 24.152 27.0075C23.5024 27.146 22.8266 27.0934 22.2063 26.8561L19.8184 29.244C20.9262 29.7566 22.1583 30.0129 23.5148 30.0129C27.2688 30.0129 30.0695 28.0578 31.9172 24.1477C31.9915 23.9904 32.03 23.8187 32.03 23.6447C32.03 23.4708 31.9915 23.2991 31.9172 23.1418Z"/>
</svg>