<svg width="558" height="45" viewBox="0 0 558 45" fill="none" xmlns="http://www.w3.org/2000/svg">
<path d="M0.757812 44V40.3086L5.5332 39.4883V5.88477L0.757812 5.06445V1.34375H31.6953V10.7773H26.7441L26.3047 5.88477H11.5977V18.8047H22.1152C25.1621 18.8047 27.75 19.3125 29.8789 20.3281C32.0273 21.3438 33.668 22.7891 34.8008 24.6641C35.9336 26.5195 36.5 28.7266 36.5 31.2852C36.5 33.8438 35.9336 36.0801 34.8008 37.9941C33.668 39.9082 32.0273 41.3926 29.8789 42.4473C27.7305 43.4824 25.1426 44 22.1152 44H0.757812ZM11.5977 39.4883H22.1152C25.0059 39.4883 27.1641 38.707 28.5898 37.1445C30.0156 35.582 30.7285 33.6094 30.7285 31.2266C30.7285 28.9219 30.0156 27.0371 28.5898 25.5723C27.1641 24.0879 25.0059 23.3457 22.1152 23.3457H11.5977V39.4883ZM41.2168 44V40.3086L45.9922 39.4883V5.88477L41.2168 5.06445V1.34375H56.5391V5.06445L51.7637 5.88477V20.6211H72.1543V5.88477L67.3789 5.06445V1.34375H72.1543H77.9258H82.7012V5.06445L77.9258 5.88477V39.4883L82.7012 40.3086V44H67.3789V40.3086L72.1543 39.4883V25.1621H51.7637V39.4883L56.5391 40.3086V44H41.2168ZM97.9648 44V40.3086L102.74 39.4883V5.70898H93.0723L92.2227 11.627H87.8867V1.34375H123.336V11.627H119.059L118.18 5.70898H108.512V39.4883L113.287 40.3086V44H97.9648ZM137.604 44.6152C137.115 44.6152 136.539 44.5859 135.875 44.5273C135.23 44.4688 134.82 44.4102 134.645 44.3516L134.82 39.9863C135.016 40.0254 135.436 40.0547 136.08 40.0742C136.725 40.0938 137.213 40.1035 137.545 40.1035C138.932 40.1035 139.918 39.7617 140.504 39.0781C141.109 38.375 141.793 37.2324 142.555 35.6504L143.697 33.2188L131.305 5.5918L127.848 5.06445V1.34375H141.236V5.06445L137.662 5.62109L144.137 21.2949L146.275 26.8027H146.451L154.449 5.65039L150.729 5.06445V1.34375H164.352V5.06445L161.012 5.5625L147.857 36.998C147.096 38.6973 146.305 40.1133 145.484 41.2461C144.664 42.3789 143.639 43.2285 142.408 43.7949C141.178 44.3418 139.576 44.6152 137.604 44.6152Z" fill="#008054"/>
<path d="M199.156 29.8496L210.436 1.34375H216.939L201.852 36.8809C201.422 37.877 200.943 38.8438 200.416 39.7812C199.889 40.6992 199.244 41.5195 198.482 42.2422C197.721 42.9648 196.773 43.541 195.641 43.9707C194.527 44.4004 193.141 44.6152 191.48 44.6152C191.012 44.6152 190.455 44.5859 189.811 44.5273C189.166 44.4883 188.746 44.4395 188.551 44.3809L188.727 39.8691C188.941 39.9082 189.361 39.9473 189.986 39.9863C190.611 40.0059 191.07 40.0156 191.363 40.0156C192.477 40.0156 193.355 39.791 194 39.3418C194.645 38.8926 195.162 38.3262 195.553 37.6426C195.963 36.9395 196.334 36.2266 196.666 35.5039L199.156 29.8496ZM189.576 1.34375L201.441 27.916L202.848 33.1602L198.102 33.5117L183.248 1.34375H189.576ZM238.092 36.793L248.873 12.3008H254.088L239.967 44H236.217L222.154 12.3008H227.369L238.092 36.793ZM225.787 12.3008V44H220.367V12.3008H225.787ZM250.221 44V12.3008H255.67V44H250.221ZM285.904 26.041V30.4355H269.146V26.041H285.904ZM270.289 12.3008V44H264.869V12.3008H270.289ZM290.299 12.3008V44H284.85V12.3008H290.299ZM303.482 23.1992H313.004C315.562 23.1992 317.721 23.6484 319.479 24.5469C321.236 25.4258 322.564 26.6465 323.463 28.209C324.381 29.752 324.84 31.5098 324.84 33.4824C324.84 34.9473 324.586 36.3242 324.078 37.6133C323.57 38.8828 322.809 39.9961 321.793 40.9531C320.797 41.9102 319.557 42.6621 318.072 43.209C316.607 43.7363 314.918 44 313.004 44H299.527V12.3008H304.947V39.5469H313.004C314.566 39.5469 315.816 39.2637 316.754 38.6973C317.691 38.1309 318.365 37.3984 318.775 36.5C319.186 35.6016 319.391 34.6641 319.391 33.6875C319.391 32.7305 319.186 31.793 318.775 30.875C318.365 29.957 317.691 29.1953 316.754 28.5898C315.816 27.9648 314.566 27.6523 313.004 27.6523H303.482V23.1992ZM336.119 12.3008V44H330.699V12.3008H336.119ZM351.471 35.416L366.09 12.3008H371.539V44H366.09V20.8848L351.471 44H346.08V12.3008H351.471V35.416ZM363.131 0.816406H367.525C367.525 2.33984 367.174 3.69727 366.471 4.88867C365.768 6.06055 364.762 6.97852 363.453 7.64258C362.145 8.30664 360.592 8.63867 358.795 8.63867C356.08 8.63867 353.932 7.91602 352.35 6.4707C350.787 5.00586 350.006 3.12109 350.006 0.816406H354.4C354.4 1.96875 354.732 2.98438 355.396 3.86328C356.061 4.74219 357.193 5.18164 358.795 5.18164C360.357 5.18164 361.471 4.74219 362.135 3.86328C362.799 2.98438 363.131 1.96875 363.131 0.816406ZM416.246 12.3008V16.7832H400.221V12.3008H416.246ZM401.012 12.3008V44H395.592V12.3008H401.012ZM421.051 12.3008V44H415.602V12.3008H421.051ZM428.316 28.502V27.8281C428.316 25.543 428.648 23.4238 429.312 21.4707C429.977 19.498 430.934 17.7891 432.184 16.3438C433.434 14.8789 434.947 13.7461 436.725 12.9453C438.502 12.125 440.494 11.7148 442.701 11.7148C444.928 11.7148 446.93 12.125 448.707 12.9453C450.504 13.7461 452.027 14.8789 453.277 16.3438C454.547 17.7891 455.514 19.498 456.178 21.4707C456.842 23.4238 457.174 25.543 457.174 27.8281V28.502C457.174 30.7871 456.842 32.9062 456.178 34.8594C455.514 36.8125 454.547 38.5215 453.277 39.9863C452.027 41.4316 450.514 42.5645 448.736 43.3848C446.979 44.1855 444.986 44.5859 442.76 44.5859C440.533 44.5859 438.531 44.1855 436.754 43.3848C434.977 42.5645 433.453 41.4316 432.184 39.9863C430.934 38.5215 429.977 36.8125 429.312 34.8594C428.648 32.9062 428.316 30.7871 428.316 28.502ZM433.736 27.8281V28.502C433.736 30.084 433.922 31.5781 434.293 32.9844C434.664 34.3711 435.221 35.6016 435.963 36.6758C436.725 37.75 437.672 38.5996 438.805 39.2246C439.938 39.8301 441.256 40.1328 442.76 40.1328C444.244 40.1328 445.543 39.8301 446.656 39.2246C447.789 38.5996 448.727 37.75 449.469 36.6758C450.211 35.6016 450.768 34.3711 451.139 32.9844C451.529 31.5781 451.725 30.084 451.725 28.502V27.8281C451.725 26.2656 451.529 24.791 451.139 23.4043C450.768 21.998 450.201 20.7578 449.439 19.6836C448.697 18.5898 447.76 17.7305 446.627 17.1055C445.514 16.4805 444.205 16.168 442.701 16.168C441.217 16.168 439.908 16.4805 438.775 17.1055C437.662 17.7305 436.725 18.5898 435.963 19.6836C435.221 20.7578 434.664 21.998 434.293 23.4043C433.922 24.791 433.736 26.2656 433.736 27.8281ZM469.83 35.416L484.449 12.3008H489.898V44H484.449V20.8848L469.83 44H464.439V12.3008H469.83V35.416ZM511.285 40.1328C512.574 40.1328 513.766 39.8691 514.859 39.3418C515.953 38.8145 516.852 38.0918 517.555 37.1738C518.258 36.2363 518.658 35.1719 518.756 33.9805H523.912C523.814 35.8555 523.18 37.6035 522.008 39.2246C520.855 40.8262 519.342 42.125 517.467 43.1211C515.592 44.0977 513.531 44.5859 511.285 44.5859C508.902 44.5859 506.822 44.166 505.045 43.3262C503.287 42.4863 501.822 41.334 500.65 39.8691C499.498 38.4043 498.629 36.7246 498.043 34.8301C497.477 32.916 497.193 30.8945 497.193 28.7656V27.5352C497.193 25.4062 497.477 23.3945 498.043 21.5C498.629 19.5859 499.498 17.8965 500.65 16.4316C501.822 14.9668 503.287 13.8145 505.045 12.9746C506.822 12.1348 508.902 11.7148 511.285 11.7148C513.766 11.7148 515.934 12.2227 517.789 13.2383C519.645 14.2344 521.1 15.6016 522.154 17.3398C523.229 19.0586 523.814 21.0117 523.912 23.1992H518.756C518.658 21.8906 518.287 20.709 517.643 19.6543C517.018 18.5996 516.158 17.7598 515.064 17.1348C513.99 16.4902 512.73 16.168 511.285 16.168C509.625 16.168 508.229 16.5 507.096 17.1641C505.982 17.8086 505.094 18.6875 504.43 19.8008C503.785 20.8945 503.316 22.1152 503.023 23.4629C502.75 24.791 502.613 26.1484 502.613 27.5352V28.7656C502.613 30.1523 502.75 31.5195 503.023 32.8672C503.297 34.2148 503.756 35.4355 504.4 36.5293C505.064 37.623 505.953 38.502 507.066 39.166C508.199 39.8105 509.605 40.1328 511.285 40.1328ZM535.895 12.3008V44H530.475V12.3008H535.895ZM556.695 12.3008L541.666 30.4648H534.078L533.258 25.7188H539.469L550.104 12.3008H556.695ZM550.865 44L539.205 29.6445L542.691 25.7188L557.75 44H550.865Z" fill="#333333"/>
</svg>
