<svg width="48" height="48" viewBox="0 0 48 48" fill="none" xmlns="http://www.w3.org/2000/svg">
<rect x="0.5" y="0.5" width="47" height="47" rx="7.5" stroke="#CCCCCC"/>
<path d="M33.6 14H14.4C13.0764 14 12 15.0764 12 16.4V30.8C12 32.1236 13.0764 33.2 14.4 33.2H33.6C34.9236 33.2 36 32.1236 36 30.8V16.4C36 15.0764 34.9236 14 33.6 14ZM20.058 18.8C21.4392 18.8 22.458 19.8188 22.458 21.2C22.458 22.5812 21.4392 23.6 20.058 23.6C18.6768 23.6 17.658 22.5812 17.658 21.2C17.658 19.8188 18.6756 18.8 20.058 18.8ZM24.516 28.4H15.6V27.842C15.6 26.1944 17.6112 24.5 20.058 24.5C22.5048 24.5 24.516 26.1944 24.516 27.842V28.4ZM32.4 27.2H27.6V24.8H32.4V27.2ZM32.4 22.4H26.4V20H32.4V22.4Z" fill="#333333"/>
</svg>
