<svg width="17" height="20" viewBox="0 0 17 20" fill="none" xmlns="http://www.w3.org/2000/svg">
<path d="M8.5 20.0001C6.18333 19.4168 4.27067 18.0874 2.762 16.0121C1.25333 13.9368 0.499334 11.6328 0.5 9.10009V3.00009L8.5 9.15527e-05L16.5 3.00009V9.10009C16.5 11.6334 15.7457 13.9378 14.237 16.0131C12.7283 18.0884 10.816 19.4174 8.5 20.0001ZM8.5 17.9001C10.1167 17.4001 11.4667 16.4124 12.55 14.9371C13.6333 13.4618 14.2667 11.8161 14.45 10.0001H8.5V2.12509L2.5 4.37509V9.55009C2.5 9.66676 2.51667 9.81676 2.55 10.0001H8.5V17.9001Z" fill="#5C5C5C"/>
</svg>
