<svg width="18" height="13" viewBox="0 0 18 13" fill="none" xmlns="http://www.w3.org/2000/svg">
<path d="M10.878 3.24998H1C0.801088 3.24998 0.610322 3.17097 0.46967 3.03031C0.329018 2.88966 0.25 2.6989 0.25 2.49998C0.25 2.30107 0.329018 2.11031 0.46967 1.96965C0.610322 1.829 0.801088 1.74998 1 1.74998H10.878C11.0333 1.31129 11.3207 0.931508 11.7007 0.662899C12.0807 0.394291 12.5346 0.250061 13 0.250061C13.4654 0.250061 13.9193 0.394291 14.2993 0.662899C14.6793 0.931508 14.9667 1.31129 15.122 1.74998H17C17.1989 1.74998 17.3897 1.829 17.5303 1.96965C17.671 2.11031 17.75 2.30107 17.75 2.49998C17.75 2.6989 17.671 2.88966 17.5303 3.03031C17.3897 3.17097 17.1989 3.24998 17 3.24998H15.122C14.9667 3.68867 14.6793 4.06846 14.2993 4.33707C13.9193 4.60568 13.4654 4.74991 13 4.74991C12.5346 4.74991 12.0807 4.60568 11.7007 4.33707C11.3207 4.06846 11.0333 3.68867 10.878 3.24998ZM17 11.25C17.1989 11.25 17.3897 11.171 17.5303 11.0303C17.671 10.8897 17.75 10.6989 17.75 10.5C17.75 10.3011 17.671 10.1103 17.5303 9.96965C17.3897 9.829 17.1989 9.74998 17 9.74998H7.122C6.96673 9.31129 6.67931 8.93151 6.29929 8.6629C5.91928 8.39429 5.46536 8.25006 5 8.25006C4.53464 8.25006 4.08072 8.39429 3.70071 8.6629C3.32069 8.93151 3.03327 9.31129 2.878 9.74998H1C0.801088 9.74998 0.610322 9.829 0.46967 9.96965C0.329018 10.1103 0.25 10.3011 0.25 10.5C0.25 10.6989 0.329018 10.8897 0.46967 11.0303C0.610322 11.171 0.801088 11.25 1 11.25H2.878C3.03281 11.6891 3.32006 12.0694 3.70013 12.3384C4.0802 12.6074 4.53436 12.7519 5 12.7519C5.46564 12.7519 5.9198 12.6074 6.29987 12.3384C6.67994 12.0694 6.96719 11.6891 7.122 11.25H17Z" fill="#767676"/>
</svg>
