<svg width="21" height="20" viewBox="0 0 21 20" fill="none" xmlns="http://www.w3.org/2000/svg">
<path d="M10.45 16.0001C10.8 16.0001 11.096 15.8791 11.338 15.6371C11.58 15.3951 11.7007 15.0994 11.7 14.7501C11.7 14.4001 11.5793 14.1041 11.338 13.8621C11.0967 13.6201 10.8007 13.4994 10.45 13.5001C10.1 13.5001 9.80433 13.6211 9.563 13.8631C9.32167 14.1051 9.20067 14.4008 9.2 14.7501C9.2 15.1001 9.321 15.3961 9.563 15.6381C9.805 15.8801 10.1007 16.0008 10.45 16.0001ZM9.55 12.1501H11.4C11.4 11.6001 11.4627 11.1668 11.588 10.8501C11.7133 10.5334 12.0673 10.1001 12.65 9.55009C13.0833 9.11676 13.425 8.70409 13.675 8.31209C13.925 7.92009 14.05 7.44942 14.05 6.90009C14.05 5.96676 13.7083 5.25009 13.025 4.75009C12.3417 4.25009 11.5333 4.00009 10.6 4.00009C9.65 4.00009 8.879 4.25009 8.287 4.75009C7.695 5.25009 7.28267 5.85009 7.05 6.55009L8.7 7.20009C8.78333 6.90009 8.971 6.57509 9.263 6.22509C9.555 5.87509 10.0007 5.70009 10.6 5.70009C11.1333 5.70009 11.5333 5.84609 11.8 6.13809C12.0667 6.43009 12.2 6.75076 12.2 7.10009C12.2 7.43343 12.1 7.74609 11.9 8.03809C11.7 8.33009 11.45 8.60076 11.15 8.85009C10.4167 9.50009 9.96667 9.99176 9.8 10.3251C9.63333 10.6584 9.55 11.2668 9.55 12.1501ZM10.5 20.0001C9.11667 20.0001 7.81667 19.7374 6.6 19.2121C5.38333 18.6868 4.325 17.9744 3.425 17.0751C2.525 16.1751 1.81267 15.1168 1.288 13.9001C0.763333 12.6834 0.500667 11.3834 0.5 10.0001C0.5 8.61676 0.762667 7.31676 1.288 6.10009C1.81333 4.88343 2.52567 3.82509 3.425 2.92509C4.325 2.02509 5.38333 1.31276 6.6 0.788092C7.81667 0.263425 9.11667 0.000758219 10.5 9.15527e-05C11.8833 9.15527e-05 13.1833 0.262758 14.4 0.788092C15.6167 1.31343 16.675 2.02576 17.575 2.92509C18.475 3.82509 19.1877 4.88343 19.713 6.10009C20.2383 7.31676 20.5007 8.61676 20.5 10.0001C20.5 11.3834 20.2373 12.6834 19.712 13.9001C19.1867 15.1168 18.4743 16.1751 17.575 17.0751C16.675 17.9751 15.6167 18.6878 14.4 19.2131C13.1833 19.7384 11.8833 20.0008 10.5 20.0001Z" fill="#5C5C5C"/>
</svg>
