<svg width="205" height="17" viewBox="0 0 205 17" fill="none" xmlns="http://www.w3.org/2000/svg">
<path d="M0.644531 16V14.6465L2.39551 14.3457V2.02441L0.644531 1.72363V0.359375H11.9883V3.81836H10.1729L10.0117 2.02441H4.61914V6.76172H8.47559C9.59277 6.76172 10.5417 6.94792 11.3223 7.32031C12.11 7.69271 12.7116 8.22266 13.127 8.91016C13.5423 9.59049 13.75 10.3997 13.75 11.3379C13.75 12.276 13.5423 13.096 13.127 13.7979C12.7116 14.4997 12.11 15.0439 11.3223 15.4307C10.5345 15.8102 9.58561 16 8.47559 16H0.644531ZM4.61914 14.3457H8.47559C9.53548 14.3457 10.3268 14.0592 10.8496 13.4863C11.3724 12.9134 11.6338 12.1901 11.6338 11.3164C11.6338 10.4714 11.3724 9.78027 10.8496 9.24316C10.3268 8.69889 9.53548 8.42676 8.47559 8.42676H4.61914V14.3457ZM15.4795 16V14.6465L17.2305 14.3457V2.02441L15.4795 1.72363V0.359375H21.0977V1.72363L19.3467 2.02441V7.42773H26.8232V2.02441L25.0723 1.72363V0.359375H26.8232H28.9395H30.6904V1.72363L28.9395 2.02441V14.3457L30.6904 14.6465V16H25.0723V14.6465L26.8232 14.3457V9.09277H19.3467V14.3457L21.0977 14.6465V16H15.4795ZM36.2871 16V14.6465L38.0381 14.3457V1.95996H34.4932L34.1816 4.12988H32.5918V0.359375H45.5898V4.12988H44.0215L43.6992 1.95996H40.1543V14.3457L41.9053 14.6465V16H36.2871ZM50.8213 16.2256C50.6423 16.2256 50.431 16.2148 50.1875 16.1934C49.9512 16.1719 49.8008 16.1504 49.7363 16.1289L49.8008 14.5283C49.8724 14.5426 50.0264 14.5534 50.2627 14.5605C50.499 14.5677 50.6781 14.5713 50.7998 14.5713C51.3083 14.5713 51.6699 14.446 51.8848 14.1953C52.1068 13.9375 52.3574 13.5186 52.6367 12.9385L53.0557 12.0469L48.5117 1.91699L47.2441 1.72363V0.359375H52.1533V1.72363L50.8428 1.92773L53.2168 7.6748L54.001 9.69434H54.0654L56.998 1.93848L55.6338 1.72363V0.359375H60.6289V1.72363L59.4043 1.90625L54.5811 13.4326C54.3018 14.0557 54.0117 14.5749 53.7109 14.9902C53.4102 15.4056 53.0342 15.7171 52.583 15.9248C52.1318 16.1253 51.5446 16.2256 50.8213 16.2256Z" fill="#008054"/>
<path d="M73.3906 10.8115L77.5264 0.359375H79.9111L74.3789 13.3896C74.2214 13.7549 74.0459 14.1094 73.8525 14.4531C73.6592 14.7897 73.4229 15.0905 73.1436 15.3555C72.8643 15.6204 72.5169 15.8317 72.1016 15.9893C71.6934 16.1468 71.1849 16.2256 70.5762 16.2256C70.4043 16.2256 70.2002 16.2148 69.9639 16.1934C69.7275 16.179 69.5736 16.1611 69.502 16.1396L69.5664 14.4854C69.6452 14.4997 69.7992 14.514 70.0283 14.5283C70.2575 14.5355 70.4258 14.5391 70.5332 14.5391C70.9414 14.5391 71.2637 14.4567 71.5 14.292C71.7363 14.1273 71.9261 13.9196 72.0693 13.6689C72.2197 13.4111 72.3558 13.1497 72.4775 12.8848L73.3906 10.8115ZM69.8779 0.359375L74.2285 10.1025L74.7441 12.0254L73.0039 12.1543L67.5576 0.359375H69.8779ZM87.667 13.3574L91.6201 4.37695H93.5322L88.3545 16H86.9795L81.8232 4.37695H83.7354L87.667 13.3574ZM83.1553 4.37695V16H81.168V4.37695H83.1553ZM92.1143 16V4.37695H94.1123V16H92.1143ZM105.198 9.41504V11.0264H99.0537V9.41504H105.198ZM99.4727 4.37695V16H97.4854V4.37695H99.4727ZM106.81 4.37695V16H104.812V4.37695H106.81ZM111.644 8.37305H115.135C116.073 8.37305 116.864 8.53776 117.509 8.86719C118.153 9.18945 118.64 9.63704 118.97 10.21C119.306 10.7757 119.475 11.4202 119.475 12.1436C119.475 12.6807 119.382 13.1855 119.195 13.6582C119.009 14.1237 118.73 14.5319 118.357 14.8828C117.992 15.2337 117.537 15.5094 116.993 15.71C116.456 15.9033 115.837 16 115.135 16H110.193V4.37695H112.181V14.3672H115.135C115.708 14.3672 116.166 14.2633 116.51 14.0557C116.854 13.848 117.101 13.5794 117.251 13.25C117.401 12.9206 117.477 12.5768 117.477 12.2188C117.477 11.8678 117.401 11.5241 117.251 11.1875C117.101 10.8509 116.854 10.5716 116.51 10.3496C116.166 10.1204 115.708 10.0059 115.135 10.0059H111.644V8.37305ZM123.61 4.37695V16H121.623V4.37695H123.61ZM129.239 12.8525L134.6 4.37695H136.598V16H134.6V7.52441L129.239 16H127.263V4.37695H129.239V12.8525ZM133.515 0.166016H135.126C135.126 0.724609 134.997 1.22233 134.739 1.65918C134.481 2.08887 134.113 2.42546 133.633 2.66895C133.153 2.91243 132.584 3.03418 131.925 3.03418C130.929 3.03418 130.142 2.76921 129.562 2.23926C128.989 1.70215 128.702 1.01107 128.702 0.166016H130.313C130.313 0.588542 130.435 0.960938 130.679 1.2832C130.922 1.60547 131.338 1.7666 131.925 1.7666C132.498 1.7666 132.906 1.60547 133.149 1.2832C133.393 0.960938 133.515 0.588542 133.515 0.166016ZM152.99 4.37695V6.02051H147.114V4.37695H152.99ZM147.404 4.37695V16H145.417V4.37695H147.404ZM154.752 4.37695V16H152.754V4.37695H154.752ZM157.416 10.3174V10.0703C157.416 9.23242 157.538 8.4554 157.781 7.73926C158.025 7.01595 158.376 6.38932 158.834 5.85938C159.292 5.32227 159.847 4.9069 160.499 4.61328C161.151 4.3125 161.881 4.16211 162.69 4.16211C163.507 4.16211 164.241 4.3125 164.893 4.61328C165.551 4.9069 166.11 5.32227 166.568 5.85938C167.034 6.38932 167.388 7.01595 167.632 7.73926C167.875 8.4554 167.997 9.23242 167.997 10.0703V10.3174C167.997 11.1553 167.875 11.9323 167.632 12.6484C167.388 13.3646 167.034 13.9912 166.568 14.5283C166.11 15.0583 165.555 15.4736 164.903 15.7744C164.259 16.068 163.528 16.2148 162.712 16.2148C161.896 16.2148 161.161 16.068 160.51 15.7744C159.858 15.4736 159.299 15.0583 158.834 14.5283C158.376 13.9912 158.025 13.3646 157.781 12.6484C157.538 11.9323 157.416 11.1553 157.416 10.3174ZM159.403 10.0703V10.3174C159.403 10.8975 159.471 11.4453 159.607 11.9609C159.743 12.4694 159.948 12.9206 160.22 13.3145C160.499 13.7083 160.846 14.0199 161.262 14.249C161.677 14.471 162.16 14.582 162.712 14.582C163.256 14.582 163.732 14.471 164.141 14.249C164.556 14.0199 164.9 13.7083 165.172 13.3145C165.444 12.9206 165.648 12.4694 165.784 11.9609C165.927 11.4453 165.999 10.8975 165.999 10.3174V10.0703C165.999 9.4974 165.927 8.95671 165.784 8.44824C165.648 7.93262 165.44 7.47786 165.161 7.08398C164.889 6.68294 164.545 6.36784 164.13 6.13867C163.722 5.90951 163.242 5.79492 162.69 5.79492C162.146 5.79492 161.666 5.90951 161.251 6.13867C160.843 6.36784 160.499 6.68294 160.22 7.08398C159.948 7.47786 159.743 7.93262 159.607 8.44824C159.471 8.95671 159.403 9.4974 159.403 10.0703ZM172.638 12.8525L177.998 4.37695H179.996V16H177.998V7.52441L172.638 16H170.661V4.37695H172.638V12.8525ZM187.838 14.582C188.311 14.582 188.747 14.4854 189.148 14.292C189.549 14.0986 189.879 13.8337 190.137 13.4971C190.395 13.1533 190.541 12.763 190.577 12.3262H192.468C192.432 13.0137 192.199 13.6546 191.77 14.249C191.347 14.8363 190.792 15.3125 190.104 15.6777C189.417 16.0358 188.661 16.2148 187.838 16.2148C186.964 16.2148 186.201 16.0609 185.55 15.7529C184.905 15.445 184.368 15.0225 183.938 14.4854C183.516 13.9482 183.197 13.3324 182.982 12.6377C182.775 11.9359 182.671 11.1947 182.671 10.4141V9.96289C182.671 9.18229 182.775 8.44466 182.982 7.75C183.197 7.04818 183.516 6.42871 183.938 5.8916C184.368 5.35449 184.905 4.93197 185.55 4.62402C186.201 4.31608 186.964 4.16211 187.838 4.16211C188.747 4.16211 189.542 4.34831 190.223 4.7207C190.903 5.08594 191.437 5.58724 191.823 6.22461C192.217 6.85482 192.432 7.57096 192.468 8.37305H190.577C190.541 7.89323 190.405 7.45996 190.169 7.07324C189.94 6.68652 189.625 6.37858 189.224 6.14941C188.83 5.91309 188.368 5.79492 187.838 5.79492C187.229 5.79492 186.717 5.91667 186.302 6.16016C185.894 6.39648 185.568 6.71875 185.324 7.12695C185.088 7.52799 184.916 7.97559 184.809 8.46973C184.708 8.95671 184.658 9.45443 184.658 9.96289V10.4141C184.658 10.9225 184.708 11.4238 184.809 11.918C184.909 12.4121 185.077 12.8597 185.313 13.2607C185.557 13.6618 185.883 13.984 186.291 14.2275C186.706 14.4639 187.222 14.582 187.838 14.582ZM196.861 4.37695V16H194.874V4.37695H196.861ZM204.488 4.37695L198.978 11.0371H196.195L195.895 9.29688H198.172L202.071 4.37695H204.488ZM202.351 16L198.075 10.7363L199.354 9.29688L204.875 16H202.351Z" fill="black"/>
</svg>
