<svg width="48" height="48" viewBox="0 0 48 48" fill="none" xmlns="http://www.w3.org/2000/svg">
<rect x="0.5" y="0.5" width="47" height="47" rx="7.5" stroke="#CCCCCC"/>
<path d="M24 24C22.35 24 20.9375 23.4125 19.7625 22.2375C18.5875 21.0625 18 19.65 18 18C18 16.35 18.5875 14.9375 19.7625 13.7625C20.9375 12.5875 22.35 12 24 12C25.65 12 27.0625 12.5875 28.2375 13.7625C29.4125 14.9375 30 16.35 30 18C30 19.65 29.4125 21.0625 28.2375 22.2375C27.0625 23.4125 25.65 24 24 24ZM15 36C14.175 36 13.4685 35.706 12.8805 35.118C12.2925 34.53 11.999 33.824 12 33V31.8C12 30.95 12.219 30.1685 12.657 29.4555C13.095 28.7425 13.676 28.199 14.4 27.825C15.95 27.05 17.525 26.4685 19.125 26.0805C20.725 25.6925 22.35 25.499 24 25.5C25.65 25.5 27.275 25.694 28.875 26.082C30.475 26.47 32.05 27.051 33.6 27.825C34.325 28.2 34.9065 28.744 35.3445 29.457C35.7825 30.17 36.001 30.951 36 31.8V33C36 33.825 35.706 34.5315 35.118 35.1195C34.53 35.7075 33.824 36.001 33 36H15Z" fill="#333333"/>
</svg>
