<svg width="49" height="48" viewBox="0 0 49 48" fill="none" xmlns="http://www.w3.org/2000/svg">
<g clip-path="url(#clip0_146_2579)">
<rect width="48" height="48" transform="translate(0.5)" fill="white"/>
<path d="M20.3349 28.2429L5.33988 35.9858L4.50683 34.8797L3.1184 31.5613L2.00767 26.8603L1.72998 22.7123L2.28535 18.5643L3.67377 14.6929L6.17294 10.2684L8.11673 8.33264L10.0605 6.39692L13.9481 3.90814L17.558 2.24895L22.001 1.41935L25.0555 1.14282L27.8324 1.41935L30.6092 1.97242L33.9414 3.07854L37.829 5.56733L40.0505 7.22652L42.272 9.99183L43.9381 12.2041L45.3265 14.6929L46.1596 17.1817L46.9926 20.2235L47.2703 22.7123V25.4776L46.9926 28.2429L46.1596 31.0082L43.9381 30.4552L40.8835 29.9021L37.829 29.6256L34.2191 29.0725L32.2753 28.5195L30.0538 28.2429L28.6654 27.6899L28.3877 26.8603V25.7541L28.11 24.648L27.8324 23.8184L27.5547 22.1592L27.277 21.3296V20.5L27.5547 19.3939L27.8324 18.5643L28.3877 17.7347L28.9431 16.6286L29.7761 16.0755L30.8869 15.799L31.7199 14.9694L31.9976 14.4163L31.4423 13.8633L30.8869 13.5867H30.0538H29.2208L28.9431 12.7572L28.6654 11.9276L28.3877 10.8214L27.8324 9.7153L26.9993 8.88571L25.8886 8.33264L23.9448 9.16224L22.001 10.8214L20.3349 13.3102H19.5018H18.3911L17.8357 14.1398V14.9694L20.3349 16.6286L21.4456 21.8827L20.3349 25.2011V28.2429Z" fill="#F7F7F7" stroke="white"/>
<path d="M24.5002 46.8571C37.1239 46.8571 47.3574 36.6661 47.3574 24.0949C47.3574 11.5237 37.1239 1.3327 24.5002 1.3327C11.8766 1.3327 1.64307 11.5237 1.64307 24.0949C1.64307 36.6661 11.8766 46.8571 24.5002 46.8571Z" stroke="#EEEEEE" stroke-width="2" stroke-miterlimit="10"/>
<path d="M45.9285 30.5715C45.9285 30.5715 44.6252 30.1407 43.1505 29.8998C42.4662 29.7841 42.2831 29.7552 40.6927 29.5721C40.0276 29.4853 39.2951 29.3986 39.0541 29.3697C38.6011 29.3215 37.165 29.0516 35.8252 28.7817C35.4011 28.7046 34.7843 28.5986 34.4662 28.56C34.1385 28.5215 33.8397 28.4636 33.7915 28.4347C33.6855 28.3769 31.7192 28.0203 30.9578 27.9335C30.6686 27.895 30.177 27.7986 29.8782 27.7118C29.2517 27.5287 29.271 27.5865 29.1361 26.1986C29.0493 25.3986 28.712 23.8853 28.4517 23.2203C27.6132 21.013 27.7192 19.1528 28.7409 17.7648C28.8855 17.5817 29.0686 17.2636 29.1554 17.0709C29.3867 16.5793 29.859 16.213 30.6397 15.9432C31.8734 15.4998 32.4999 14.8926 32.4999 14.1215C32.4999 13.6106 32.2108 13.0227 31.8927 12.8781C31.4975 12.695 30.8421 12.6371 30.2638 12.7335C29.4349 12.8588 29.4831 12.9263 29.1264 10.9697C29.0204 10.3335 28.5385 9.26364 28.0855 8.64677C27.7674 8.21303 26.6011 7.46123 26.177 7.42267C26.0228 7.40339 25.6855 7.42267 25.4156 7.45159C24.8084 7.51906 24.018 7.88532 23.3819 8.39617C22.6011 9.01303 21.1072 10.8636 20.7409 11.6636C20.5481 12.0974 20.3554 12.3865 20.2301 12.4251C20.124 12.454 19.7288 12.4636 19.3529 12.4251C18.2252 12.3383 17.9554 12.4251 17.5313 13.042C17.1939 13.5432 17.1746 13.6106 17.2035 14.1889C17.2325 14.7962 17.2421 14.8251 17.6855 15.2106C17.9361 15.4227 18.418 15.7504 18.7554 15.9335C19.5843 16.3769 19.6807 16.5889 20.1048 18.7191C20.2686 19.5191 20.4614 20.1456 20.6927 20.6371C21.1168 21.5046 21.1072 21.5817 20.4999 23.3552C20.124 24.4444 19.7578 26.0636 19.5072 27.7407L19.4397 28.2227L18.2349 28.8685C16.9722 29.5432 11.6614 32.2034 9.75294 33.1191C8.77945 33.5817 7.86379 34.1311 6.39873 35.1239C6.17704 35.2781 5.96499 35.4034 5.93608 35.4034C5.80596 35.4034 5.50661 35.6901 4.78564 36.2857C4.98034 36.4901 5.19804 36.6278 5.35707 36.8572C5.92286 36.4475 6.22138 36.2554 7.08403 35.7118C7.60451 35.3841 8.19246 35.0371 8.38523 34.9407C8.578 34.8444 9.24306 34.4781 9.85029 34.1311C10.4575 33.7841 11.5467 33.2154 12.2599 32.8588C12.9732 32.5022 14.0623 31.9624 14.6696 31.6444C15.2768 31.3263 15.9033 31.0179 16.0672 30.9504C16.2214 30.8829 16.6358 30.6709 16.9828 30.4781C18.9105 29.3986 19.3057 29.2154 19.4407 29.3311C19.5178 29.3889 19.6334 29.4082 19.6913 29.3697C19.7587 29.3311 19.9419 29.2829 20.1057 29.2733C20.6455 29.2251 22.1395 28.9841 22.284 28.9166C22.3611 28.8877 22.6889 28.8106 23.0069 28.7528C23.325 28.695 23.7973 28.5793 24.0575 28.5022C24.3178 28.4347 24.5587 28.3962 24.6069 28.4251C24.6551 28.454 24.7515 28.4444 24.8093 28.4058C24.9539 28.3191 25.0985 28.2998 25.9274 28.2612C26.2551 28.2516 26.5539 28.213 26.5732 28.1745C26.6214 28.0974 27.325 28.1841 28.4527 28.4154C28.9057 28.5118 29.3684 28.6179 29.484 28.666C29.6093 28.7142 30.5154 28.8781 31.5178 29.0419C32.5105 29.1962 33.7346 29.4179 34.2358 29.5239C35.0551 29.707 37.0214 30.054 38.6214 30.295C38.9394 30.3432 39.4985 30.401 39.8551 30.4203C40.2117 30.4395 40.5395 30.4877 40.5684 30.5263C40.5973 30.5552 40.7708 30.5841 40.9346 30.5841C41.3395 30.5841 43.6527 30.9407 44.4527 31.1239C45.0908 31.2713 46.4999 31.7143 46.4999 31.7143L46.7856 30.8572L45.9285 30.5715ZM28.9915 15.0082C29.0301 14.5938 29.0686 14.1697 29.0686 14.0829C29.0686 13.9673 29.2132 13.8612 29.512 13.7745C30.1192 13.5721 30.2734 13.5432 30.7554 13.5335C31.1023 13.5239 31.2469 13.5721 31.459 13.7841C31.7963 14.1118 31.7963 14.2275 31.4397 14.5648C31.1505 14.8444 30.9867 14.9311 29.8011 15.4034C29.4541 15.5383 29.1168 15.6829 29.0493 15.7118C28.9433 15.76 28.9337 15.6251 28.9915 15.0082ZM20.365 13.5817C20.3554 13.7359 20.2975 13.9383 20.2493 14.0251C20.2011 14.1118 20.1433 14.4203 20.1144 14.6998C20.0469 15.4227 19.9698 15.7407 19.8638 15.7407C19.6999 15.7407 18.4469 14.9504 18.206 14.6901C17.8301 14.3046 17.8301 13.8901 18.1963 13.495C18.4373 13.2347 18.4566 13.2251 19.4204 13.2636L20.4035 13.2926L20.365 13.5817ZM20.7313 17.3407L20.4132 16.0877L20.5385 15.0757C20.606 14.507 20.6734 13.9287 20.6927 13.7841C20.712 13.6395 20.7602 13.466 20.818 13.3986C20.8662 13.3311 20.9337 13.1672 20.9722 13.0227C21.0011 12.8781 21.1361 12.5986 21.271 12.4058C21.406 12.213 21.512 11.9817 21.512 11.895C21.512 11.7022 21.9746 11.0468 22.5433 10.4203C22.7746 10.1697 22.9578 9.9287 22.9578 9.87086C22.9578 9.68773 24.259 8.7046 24.7987 8.49255C25.5987 8.17448 26.0807 8.16484 26.5337 8.46364C27.2662 8.94556 28.1529 10.295 28.3361 11.2106C28.3939 11.4998 28.4903 12.001 28.5578 12.3191C28.7216 13.1094 28.6927 14.6998 28.4903 15.8179C28.3554 16.5889 28.2493 16.8781 27.9023 17.4564C27.3722 18.3335 27.218 18.7383 27.006 19.9046C26.8421 20.7528 26.7843 20.907 26.312 21.5624C25.9361 22.0926 25.7048 22.3239 25.4349 22.4395C24.3746 22.8636 22.4758 22.2564 22.0228 21.3311C21.724 20.7142 21.0975 18.7962 20.7313 17.3407ZM27.7192 27.7022C27.671 27.7022 27.0734 27.7215 26.3891 27.7407C25.7048 27.76 24.8758 27.8468 24.5578 27.9239C23.6999 28.1359 21.724 28.5407 21.2517 28.5889C20.8566 28.6371 20.6349 28.5407 20.8373 28.4154C21.0301 28.2998 20.9433 27.8853 20.6927 27.7697C20.4807 27.6733 20.4614 27.6251 20.5192 27.2203C20.5867 26.6419 20.9626 24.9456 21.2228 24.0299C21.4445 23.2492 21.8975 22.1793 21.9843 22.2275C22.0132 22.2371 22.4373 22.4395 22.9096 22.6709C23.671 23.0371 23.8541 23.0853 24.4517 23.095C25.4252 23.095 25.9168 22.854 26.4469 22.1118C26.6782 21.7938 26.8999 21.5432 26.9578 21.5624C27.006 21.5721 27.1023 21.7648 27.1602 21.9672C27.218 22.1793 27.324 22.9215 27.3819 23.6058C27.4397 24.2901 27.5264 25.0034 27.5843 25.1865C27.7192 25.6299 27.8349 27.6926 27.7192 27.7022Z" fill="#333333"/>
<path d="M24.5383 13.1576C23.8733 14.2467 23.2468 15.4708 23.2468 15.6636C23.2468 15.7504 23.2178 15.8371 23.1793 15.8564C23.0251 15.9142 22.5432 17.0805 22.601 17.2251C22.7166 17.5239 23.9215 17.813 25.2034 17.8419C25.9456 17.8612 26.0323 17.8419 26.0901 17.6781C26.1769 17.3986 26.1383 16.2805 25.9938 15.2106C25.9166 14.6805 25.8395 13.8612 25.8106 13.3889C25.7817 12.9263 25.7335 12.5118 25.7046 12.4829C25.6757 12.4443 25.5022 12.4154 25.3191 12.3961C25.0203 12.3769 24.9817 12.4154 24.5383 13.1576ZM25.4925 14.1986C25.5215 14.6516 25.6178 15.4708 25.695 16.0202C25.8685 17.254 25.8299 17.3793 25.2034 17.3793C24.9624 17.3793 24.6058 17.3407 24.413 17.2925C24.2203 17.2347 23.8636 17.148 23.613 17.0805C23.3335 17.013 23.1504 16.9166 23.1504 16.8299C23.1504 16.6082 24.5094 13.9094 24.7986 13.5624C24.9528 13.3696 25.2998 13.2347 25.3769 13.3214C25.4154 13.3504 25.4636 13.7455 25.4925 14.1986Z" fill="#333333"/>
</g>
<defs>
<clipPath id="clip0_146_2579">
<rect width="48" height="48" fill="white" transform="translate(0.5)"/>
</clipPath>
</defs>
</svg>
