<svg width="16" height="13" viewBox="0 0 16 13" fill="none" xmlns="http://www.w3.org/2000/svg">
<path d="M1.6 12.8C1.16 12.8 0.783201 12.6432 0.469601 12.3296C0.156001 12.016 -0.000531975 11.6395 1.35823e-06 11.2V1.6C1.35823e-06 1.16 0.156801 0.783201 0.470401 0.469601C0.784001 0.156001 1.16053 -0.000531975 1.6 1.35823e-06H14.4C14.84 1.35823e-06 15.2168 0.156801 15.5304 0.470401C15.844 0.784001 16.0005 1.16053 16 1.6V11.2C16 11.64 15.8432 12.0168 15.5296 12.3304C15.216 12.644 14.8395 12.8005 14.4 12.8H1.6ZM8 7.2L14.4 3.2V1.6L8 5.6L1.6 1.6V3.2L8 7.2Z" fill="#929292"/>
</svg>
