<svg width="17" height="17" viewBox="0 0 17 17" fill="none" xmlns="http://www.w3.org/2000/svg">
<g clip-path="url(#clip0_83_3657)">
<path d="M16.4922 8.84069C16.4922 8.16981 16.4377 7.68025 16.3199 7.17256H8.65918V10.2006H13.1559C13.0652 10.9531 12.5757 12.0863 11.4877 12.8478L11.4725 12.9492L13.8947 14.8256L14.0625 14.8424C15.6037 13.419 16.4922 11.3247 16.4922 8.84069Z" fill="#4285F4"/>
<path d="M8.65918 16.8188C10.8622 16.8188 12.7116 16.0934 14.0625 14.8424L11.4877 12.8478C10.7987 13.3283 9.87399 13.6638 8.65918 13.6638C6.50149 13.6638 4.67018 12.2404 4.01737 10.2731L3.92168 10.2813L1.40305 12.2304L1.37012 12.322C2.71187 14.9874 5.46793 16.8188 8.65918 16.8188Z" fill="#34A853"/>
<path d="M4.01756 10.2731C3.84531 9.76544 3.74563 9.22144 3.74563 8.65938C3.74563 8.09725 3.84531 7.55331 4.0085 7.04563L4.00394 6.9375L1.45375 4.957L1.37031 4.99669C0.817313 6.10275 0.5 7.34481 0.5 8.65938C0.5 9.97394 0.817313 11.2159 1.37031 12.322L4.01756 10.2731Z" fill="#FBBC05"/>
<path d="M8.65918 3.65494C10.1913 3.65494 11.2248 4.31675 11.8141 4.86981L14.1169 2.62144C12.7026 1.30687 10.8622 0.5 8.65918 0.5C5.46793 0.5 2.71187 2.33131 1.37012 4.99669L4.00831 7.04563C4.67018 5.07831 6.50149 3.65494 8.65918 3.65494Z" fill="#EB4335"/>
</g>
<defs>
<clipPath id="clip0_83_3657">
<rect width="16" height="16.375" fill="white" transform="translate(0.5 0.5)"/>
</clipPath>
</defs>
</svg>
