<svg width="22" height="18" viewBox="0 0 22 18" fill="none" xmlns="http://www.w3.org/2000/svg">
<path d="M20.5 14C20.2166 14 19.979 13.904 19.787 13.712C19.595 13.52 19.4993 13.2827 19.5 13V7.10004L11.475 11.475C11.325 11.5584 11.171 11.621 11.013 11.663C10.855 11.705 10.684 11.7257 10.5 11.725C10.3166 11.725 10.1456 11.7044 9.98696 11.663C9.82829 11.6217 9.67429 11.559 9.52496 11.475L1.09996 6.87504C0.933292 6.79171 0.803958 6.67071 0.711958 6.51204C0.619958 6.35337 0.574292 6.18271 0.574958 6.00004C0.574958 5.81671 0.620958 5.64571 0.712958 5.48704C0.804958 5.32837 0.933958 5.20771 1.09996 5.12504L9.54996 0.52504C9.69996 0.441707 9.85429 0.37904 10.013 0.33704C10.1716 0.29504 10.334 0.274373 10.5 0.27504C10.6666 0.27504 10.8293 0.29604 10.988 0.33804C11.1466 0.38004 11.3006 0.442373 11.45 0.52504L20.975 5.72504C21.1416 5.80837 21.271 5.92937 21.363 6.08804C21.455 6.24671 21.5006 6.41737 21.5 6.60004V13C21.5 13.2834 21.404 13.521 21.212 13.713C21.02 13.905 20.7826 14.0007 20.5 14ZM10.5 17.725C10.3333 17.725 10.1706 17.704 10.012 17.662C9.85329 17.62 9.69929 17.5577 9.54996 17.475L4.54996 14.775C4.21663 14.5917 3.95829 14.346 3.77496 14.038C3.59162 13.73 3.49996 13.384 3.49996 13V9.20004L9.17496 12.275C9.39162 12.3917 9.60829 12.496 9.82496 12.588C10.0416 12.68 10.2666 12.7257 10.5 12.725C10.7333 12.725 10.9626 12.675 11.188 12.575C11.4133 12.475 11.634 12.3667 11.85 12.25L17.5 9.20004V13C17.5 13.3834 17.4083 13.7294 17.225 14.038C17.0416 14.3467 16.7833 14.5924 16.45 14.775L11.45 17.475C11.3 17.5584 11.146 17.621 10.988 17.663C10.83 17.705 10.6673 17.7257 10.5 17.725Z" fill="#5C5C5C"/>
</svg>
