<svg width="21" height="19" viewBox="0 0 21 19" fill="none" xmlns="http://www.w3.org/2000/svg">
<path d="M0.5 9.00003L5.5 3.05176e-05L10.5 9.00003H0.5ZM5.5 19C4.4 19 3.45833 18.6084 2.675 17.825C1.89167 17.0417 1.5 16.1 1.5 15C1.5 13.9 1.89167 12.9584 2.675 12.175C3.45833 11.3917 4.4 11 5.5 11C6.6 11 7.54167 11.3917 8.325 12.175C9.10833 12.9584 9.5 13.9 9.5 15C9.5 16.1 9.10833 17.0417 8.325 17.825C7.54167 18.6084 6.6 19 5.5 19ZM11.5 19V11H19.5V19H11.5ZM15.5 9.00003C14.55 8.20003 13.754 7.52503 13.112 6.97503C12.47 6.42503 11.9577 5.9417 11.575 5.52503C11.1917 5.10836 10.9167 4.7167 10.75 4.35003C10.5833 3.98336 10.5 3.5917 10.5 3.17503C10.5 2.42503 10.7627 1.7917 11.288 1.27503C11.8133 0.758364 12.4673 0.500031 13.25 0.500031C13.7 0.500031 14.121 0.604364 14.513 0.81303C14.905 1.0217 15.234 1.30903 15.5 1.67503C15.7667 1.30836 16.096 1.02103 16.488 0.81303C16.88 0.60503 17.3007 0.500697 17.75 0.500031C18.5333 0.500031 19.1877 0.758364 19.713 1.27503C20.2383 1.7917 20.5007 2.42503 20.5 3.17503C20.5 3.5917 20.4167 3.98336 20.25 4.35003C20.0833 4.7167 19.8083 5.10836 19.425 5.52503C19.0417 5.9417 18.529 6.42503 17.887 6.97503C17.245 7.52503 16.4493 8.20003 15.5 9.00003Z" fill="#5C5C5C"/>
</svg>
