<svg width="19" height="18" viewBox="0 0 19 18" fill="none" xmlns="http://www.w3.org/2000/svg">
<path d="M4.5 14H11.5V12H4.5V14ZM4.5 10H14.5V8.00003H4.5V10ZM4.5 6.00003H14.5V4.00003H4.5V6.00003ZM2.5 18C1.95 18 1.479 17.804 1.087 17.412C0.695002 17.02 0.499335 16.5494 0.500002 16V2.00003C0.500002 1.45003 0.696002 0.979032 1.088 0.587032C1.48 0.195032 1.95067 -0.000634451 2.5 3.22154e-05H16.5C17.05 3.22154e-05 17.521 0.196032 17.913 0.588032C18.305 0.980032 18.5007 1.4507 18.5 2.00003V16C18.5 16.55 18.304 17.021 17.912 17.413C17.52 17.805 17.0493 18.0007 16.5 18H2.5Z" fill="#5C5C5C"/>
</svg>
