<svg width="48" height="48" viewBox="0 0 48 48" fill="none" xmlns="http://www.w3.org/2000/svg">
<rect x="0.5" y="0.5" width="47" height="47" rx="7.5" stroke="#CCCCCC"/>
<path d="M24 32C24.7956 32 25.5587 31.6839 26.1213 31.1213C26.6839 30.5587 27 29.7956 27 29C27 28.2044 26.6839 27.4413 26.1213 26.8787C25.5587 26.3161 24.7956 26 24 26C23.2044 26 22.4413 26.3161 21.8787 26.8787C21.3161 27.4413 21 28.2044 21 29C21 29.7956 21.3161 30.5587 21.8787 31.1213C22.4413 31.6839 23.2044 32 24 32ZM33 18.5C33.7956 18.5 34.5587 18.8161 35.1213 19.3787C35.6839 19.9413 36 20.7044 36 21.5V36.5C36 37.2956 35.6839 38.0587 35.1213 38.6213C34.5587 39.1839 33.7956 39.5 33 39.5H15C14.2044 39.5 13.4413 39.1839 12.8787 38.6213C12.3161 38.0587 12 37.2956 12 36.5V21.5C12 20.7044 12.3161 19.9413 12.8787 19.3787C13.4413 18.8161 14.2044 18.5 15 18.5H16.5V15.5C16.5 13.5109 17.2902 11.6032 18.6967 10.1967C20.1032 8.79018 22.0109 8 24 8C24.9849 8 25.9602 8.19399 26.8701 8.5709C27.7801 8.94781 28.6069 9.50026 29.3033 10.1967C29.9997 10.8931 30.5522 11.7199 30.9291 12.6299C31.306 13.5398 31.5 14.5151 31.5 15.5V18.5H33ZM24 11C22.8065 11 21.6619 11.4741 20.818 12.318C19.9741 13.1619 19.5 14.3065 19.5 15.5V18.5H28.5V15.5C28.5 14.3065 28.0259 13.1619 27.182 12.318C26.3381 11.4741 25.1935 11 24 11Z" fill="#333333"/>
</svg>
